<svg xmlns="http://www.w3.org/2000/svg" xmlns:xlink="http://www.w3.org/1999/xlink" width="532" zoomAndPan="magnify" viewBox="0 0 398.88 70.499998" height="94" preserveAspectRatio="xMidYMid meet" version="1.2"><defs><clipPath id="2b4c1c706f"><path d="M 1.359375 0 L 396.789062 0 L 396.789062 70 L 1.359375 70 Z M 1.359375 0 "/></clipPath><clipPath id="574bdfa6c9"><path d="M 19.21875 0 L 378.914062 0 C 383.652344 0 388.195312 1.882812 391.546875 5.230469 C 394.894531 8.582031 396.777344 13.125 396.777344 17.863281 L 396.777344 51.863281 C 396.777344 56.597656 394.894531 61.140625 391.546875 64.492188 C 388.195312 67.84375 383.652344 69.722656 378.914062 69.722656 L 19.21875 69.722656 C 14.484375 69.722656 9.9375 67.84375 6.589844 64.492188 C 3.238281 61.140625 1.359375 56.597656 1.359375 51.863281 L 1.359375 17.863281 C 1.359375 13.125 3.238281 8.582031 6.589844 5.230469 C 9.9375 1.882812 14.484375 0 19.21875 0 Z M 19.21875 0 "/></clipPath><linearGradient x1="-0.0000000000646441" gradientTransform="matrix(5.062071,0,0,5.062071,0.000000000327233,0.000000000000106635)" y1="9.252" x2="104.943598" gradientUnits="userSpaceOnUse" y2="9.252" id="0d08f7ae03"><stop style="stop-color:#5de0e6;stop-opacity:1;" offset="0"/><stop style="stop-color:#5ddfe6;stop-opacity:1;" offset="0.00390625"/><stop style="stop-color:#5cdfe6;stop-opacity:1;" offset="0.0078125"/><stop style="stop-color:#5cdee5;stop-opacity:1;" offset="0.0117188"/><stop style="stop-color:#5cdee5;stop-opacity:1;" offset="0.015625"/><stop style="stop-color:#5bdde5;stop-opacity:1;" offset="0.0195312"/><stop style="stop-color:#5bdce5;stop-opacity:1;" offset="0.0234375"/><stop style="stop-color:#5bdce4;stop-opacity:1;" offset="0.0273437"/><stop style="stop-color:#5adbe4;stop-opacity:1;" offset="0.03125"/><stop style="stop-color:#5adbe4;stop-opacity:1;" offset="0.0351562"/><stop style="stop-color:#59dae4;stop-opacity:1;" offset="0.0390625"/><stop style="stop-color:#59d9e4;stop-opacity:1;" offset="0.0429688"/><stop style="stop-color:#59d9e3;stop-opacity:1;" offset="0.046875"/><stop style="stop-color:#58d8e3;stop-opacity:1;" offset="0.0507813"/><stop style="stop-color:#58d8e3;stop-opacity:1;" offset="0.0546875"/><stop style="stop-color:#58d7e3;stop-opacity:1;" offset="0.0585938"/><stop style="stop-color:#57d7e2;stop-opacity:1;" offset="0.0625"/><stop style="stop-color:#57d6e2;stop-opacity:1;" offset="0.0664062"/><stop style="stop-color:#57d5e2;stop-opacity:1;" offset="0.0703125"/><stop style="stop-color:#56d5e2;stop-opacity:1;" offset="0.0742188"/><stop style="stop-color:#56d4e2;stop-opacity:1;" offset="0.078125"/><stop style="stop-color:#55d4e1;stop-opacity:1;" offset="0.0820313"/><stop style="stop-color:#55d3e1;stop-opacity:1;" offset="0.0859375"/><stop style="stop-color:#55d2e1;stop-opacity:1;" offset="0.0898438"/><stop style="stop-color:#54d2e1;stop-opacity:1;" offset="0.09375"/><stop style="stop-color:#54d1e0;stop-opacity:1;" offset="0.0976563"/><stop style="stop-color:#54d1e0;stop-opacity:1;" offset="0.101563"/><stop style="stop-color:#53d0e0;stop-opacity:1;" offset="0.105469"/><stop style="stop-color:#53cfe0;stop-opacity:1;" offset="0.109375"/><stop style="stop-color:#53cfe0;stop-opacity:1;" offset="0.113281"/><stop style="stop-color:#52cedf;stop-opacity:1;" offset="0.117188"/><stop style="stop-color:#52cedf;stop-opacity:1;" offset="0.121094"/><stop style="stop-color:#51cddf;stop-opacity:1;" offset="0.125"/><stop style="stop-color:#51cddf;stop-opacity:1;" offset="0.128906"/><stop style="stop-color:#51ccde;stop-opacity:1;" offset="0.132812"/><stop style="stop-color:#50cbde;stop-opacity:1;" offset="0.136719"/><stop style="stop-color:#50cbde;stop-opacity:1;" offset="0.140625"/><stop style="stop-color:#50cade;stop-opacity:1;" offset="0.144531"/><stop style="stop-color:#4fcade;stop-opacity:1;" offset="0.148438"/><stop style="stop-color:#4fc9dd;stop-opacity:1;" offset="0.152344"/><stop style="stop-color:#4fc8dd;stop-opacity:1;" offset="0.15625"/><stop style="stop-color:#4ec8dd;stop-opacity:1;" offset="0.160156"/><stop style="stop-color:#4ec7dd;stop-opacity:1;" offset="0.164062"/><stop style="stop-color:#4dc7dc;stop-opacity:1;" offset="0.167969"/><stop style="stop-color:#4dc6dc;stop-opacity:1;" offset="0.171875"/><stop style="stop-color:#4dc6dc;stop-opacity:1;" offset="0.175781"/><stop style="stop-color:#4cc5dc;stop-opacity:1;" offset="0.179688"/><stop style="stop-color:#4cc4dc;stop-opacity:1;" offset="0.183594"/><stop style="stop-color:#4cc4db;stop-opacity:1;" offset="0.1875"/><stop style="stop-color:#4bc3db;stop-opacity:1;" offset="0.191406"/><stop style="stop-color:#4bc3db;stop-opacity:1;" offset="0.195312"/><stop style="stop-color:#4bc2db;stop-opacity:1;" offset="0.199219"/><stop style="stop-color:#4ac1da;stop-opacity:1;" offset="0.203125"/><stop style="stop-color:#4ac1da;stop-opacity:1;" offset="0.207031"/><stop style="stop-color:#49c0da;stop-opacity:1;" offset="0.210938"/><stop style="stop-color:#49c0da;stop-opacity:1;" offset="0.214844"/><stop style="stop-color:#49bfda;stop-opacity:1;" offset="0.21875"/><stop style="stop-color:#48bfd9;stop-opacity:1;" offset="0.222656"/><stop style="stop-color:#48bed9;stop-opacity:1;" offset="0.226562"/><stop style="stop-color:#48bdd9;stop-opacity:1;" offset="0.230469"/><stop style="stop-color:#47bdd9;stop-opacity:1;" offset="0.234375"/><stop style="stop-color:#47bcd8;stop-opacity:1;" offset="0.238281"/><stop style="stop-color:#47bcd8;stop-opacity:1;" offset="0.242188"/><stop style="stop-color:#46bbd8;stop-opacity:1;" offset="0.246094"/><stop style="stop-color:#46bad8;stop-opacity:1;" offset="0.25"/><stop style="stop-color:#45bad8;stop-opacity:1;" offset="0.253906"/><stop style="stop-color:#45b9d7;stop-opacity:1;" offset="0.257812"/><stop style="stop-color:#45b9d7;stop-opacity:1;" offset="0.261719"/><stop style="stop-color:#44b8d7;stop-opacity:1;" offset="0.265625"/><stop style="stop-color:#44b7d7;stop-opacity:1;" offset="0.269531"/><stop style="stop-color:#44b7d6;stop-opacity:1;" offset="0.273438"/><stop style="stop-color:#43b6d6;stop-opacity:1;" offset="0.277344"/><stop style="stop-color:#43b6d6;stop-opacity:1;" offset="0.28125"/><stop style="stop-color:#43b5d6;stop-opacity:1;" offset="0.285156"/><stop style="stop-color:#42b5d5;stop-opacity:1;" offset="0.289063"/><stop style="stop-color:#42b4d5;stop-opacity:1;" offset="0.292969"/><stop style="stop-color:#41b3d5;stop-opacity:1;" offset="0.296875"/><stop style="stop-color:#41b3d5;stop-opacity:1;" offset="0.300781"/><stop style="stop-color:#41b2d5;stop-opacity:1;" offset="0.304688"/><stop style="stop-color:#40b2d4;stop-opacity:1;" offset="0.308594"/><stop style="stop-color:#40b1d4;stop-opacity:1;" offset="0.3125"/><stop style="stop-color:#40b0d4;stop-opacity:1;" offset="0.316406"/><stop style="stop-color:#3fb0d4;stop-opacity:1;" offset="0.320313"/><stop style="stop-color:#3fafd3;stop-opacity:1;" offset="0.324219"/><stop style="stop-color:#3fafd3;stop-opacity:1;" offset="0.328125"/><stop style="stop-color:#3eaed3;stop-opacity:1;" offset="0.332031"/><stop style="stop-color:#3eaed3;stop-opacity:1;" offset="0.335938"/><stop style="stop-color:#3dadd3;stop-opacity:1;" offset="0.339844"/><stop style="stop-color:#3dacd2;stop-opacity:1;" offset="0.34375"/><stop style="stop-color:#3dacd2;stop-opacity:1;" offset="0.347656"/><stop style="stop-color:#3cabd2;stop-opacity:1;" offset="0.351563"/><stop style="stop-color:#3cabd2;stop-opacity:1;" offset="0.355469"/><stop style="stop-color:#3caad1;stop-opacity:1;" offset="0.359375"/><stop style="stop-color:#3ba9d1;stop-opacity:1;" offset="0.363281"/><stop style="stop-color:#3ba9d1;stop-opacity:1;" offset="0.367188"/><stop style="stop-color:#3ba8d1;stop-opacity:1;" offset="0.371094"/><stop style="stop-color:#3aa8d1;stop-opacity:1;" offset="0.375"/><stop style="stop-color:#3aa7d0;stop-opacity:1;" offset="0.378906"/><stop style="stop-color:#39a6d0;stop-opacity:1;" offset="0.382813"/><stop style="stop-color:#39a6d0;stop-opacity:1;" offset="0.386719"/><stop style="stop-color:#39a5d0;stop-opacity:1;" offset="0.390625"/><stop style="stop-color:#38a5cf;stop-opacity:1;" offset="0.394531"/><stop style="stop-color:#38a4cf;stop-opacity:1;" offset="0.398438"/><stop style="stop-color:#38a4cf;stop-opacity:1;" offset="0.402344"/><stop style="stop-color:#37a3cf;stop-opacity:1;" offset="0.40625"/><stop style="stop-color:#37a2cf;stop-opacity:1;" offset="0.410156"/><stop style="stop-color:#37a2ce;stop-opacity:1;" offset="0.414063"/><stop style="stop-color:#36a1ce;stop-opacity:1;" offset="0.417969"/><stop style="stop-color:#36a1ce;stop-opacity:1;" offset="0.421875"/><stop style="stop-color:#35a0ce;stop-opacity:1;" offset="0.425781"/><stop style="stop-color:#359fcd;stop-opacity:1;" offset="0.429688"/><stop style="stop-color:#359fcd;stop-opacity:1;" offset="0.433594"/><stop style="stop-color:#349ecd;stop-opacity:1;" offset="0.4375"/><stop style="stop-color:#349ecd;stop-opacity:1;" offset="0.441406"/><stop style="stop-color:#349dcd;stop-opacity:1;" offset="0.445313"/><stop style="stop-color:#339dcc;stop-opacity:1;" offset="0.449219"/><stop style="stop-color:#339ccc;stop-opacity:1;" offset="0.453125"/><stop style="stop-color:#339bcc;stop-opacity:1;" offset="0.457031"/><stop style="stop-color:#329bcc;stop-opacity:1;" offset="0.460938"/><stop style="stop-color:#329acb;stop-opacity:1;" offset="0.464844"/><stop style="stop-color:#319acb;stop-opacity:1;" offset="0.46875"/><stop style="stop-color:#3199cb;stop-opacity:1;" offset="0.472656"/><stop style="stop-color:#3198cb;stop-opacity:1;" offset="0.476563"/><stop style="stop-color:#3098cb;stop-opacity:1;" offset="0.480469"/><stop style="stop-color:#3097ca;stop-opacity:1;" offset="0.484375"/><stop style="stop-color:#3097ca;stop-opacity:1;" offset="0.488281"/><stop style="stop-color:#2f96ca;stop-opacity:1;" offset="0.492188"/><stop style="stop-color:#2f96ca;stop-opacity:1;" offset="0.496094"/><stop style="stop-color:#2f95c9;stop-opacity:1;" offset="0.5"/><stop style="stop-color:#2e94c9;stop-opacity:1;" offset="0.503906"/><stop style="stop-color:#2e94c9;stop-opacity:1;" offset="0.507812"/><stop style="stop-color:#2d93c9;stop-opacity:1;" offset="0.511719"/><stop style="stop-color:#2d93c9;stop-opacity:1;" offset="0.515625"/><stop style="stop-color:#2d92c8;stop-opacity:1;" offset="0.519531"/><stop style="stop-color:#2c91c8;stop-opacity:1;" offset="0.523438"/><stop style="stop-color:#2c91c8;stop-opacity:1;" offset="0.527344"/><stop style="stop-color:#2c90c8;stop-opacity:1;" offset="0.53125"/><stop style="stop-color:#2b90c7;stop-opacity:1;" offset="0.535156"/><stop style="stop-color:#2b8fc7;stop-opacity:1;" offset="0.539062"/><stop style="stop-color:#2b8ec7;stop-opacity:1;" offset="0.542969"/><stop style="stop-color:#2a8ec7;stop-opacity:1;" offset="0.546875"/><stop style="stop-color:#2a8dc7;stop-opacity:1;" offset="0.550781"/><stop style="stop-color:#298dc6;stop-opacity:1;" offset="0.554688"/><stop style="stop-color:#298cc6;stop-opacity:1;" offset="0.558594"/><stop style="stop-color:#298cc6;stop-opacity:1;" offset="0.5625"/><stop style="stop-color:#288bc6;stop-opacity:1;" offset="0.566406"/><stop style="stop-color:#288ac5;stop-opacity:1;" offset="0.570313"/><stop style="stop-color:#288ac5;stop-opacity:1;" offset="0.574219"/><stop style="stop-color:#2789c5;stop-opacity:1;" offset="0.578125"/><stop style="stop-color:#2789c5;stop-opacity:1;" offset="0.582031"/><stop style="stop-color:#2788c5;stop-opacity:1;" offset="0.585938"/><stop style="stop-color:#2687c4;stop-opacity:1;" offset="0.589844"/><stop style="stop-color:#2687c4;stop-opacity:1;" offset="0.59375"/><stop style="stop-color:#2586c4;stop-opacity:1;" offset="0.597656"/><stop style="stop-color:#2586c4;stop-opacity:1;" offset="0.601562"/><stop style="stop-color:#2585c3;stop-opacity:1;" offset="0.605469"/><stop style="stop-color:#2485c3;stop-opacity:1;" offset="0.609375"/><stop style="stop-color:#2484c3;stop-opacity:1;" offset="0.613281"/><stop style="stop-color:#2483c3;stop-opacity:1;" offset="0.617188"/><stop style="stop-color:#2383c3;stop-opacity:1;" offset="0.621094"/><stop style="stop-color:#2382c2;stop-opacity:1;" offset="0.625"/><stop style="stop-color:#2382c2;stop-opacity:1;" offset="0.628906"/><stop style="stop-color:#2281c2;stop-opacity:1;" offset="0.632812"/><stop style="stop-color:#2280c2;stop-opacity:1;" offset="0.636719"/><stop style="stop-color:#2180c1;stop-opacity:1;" offset="0.640625"/><stop style="stop-color:#217fc1;stop-opacity:1;" offset="0.644531"/><stop style="stop-color:#217fc1;stop-opacity:1;" offset="0.648438"/><stop style="stop-color:#207ec1;stop-opacity:1;" offset="0.652344"/><stop style="stop-color:#207dc1;stop-opacity:1;" offset="0.65625"/><stop style="stop-color:#207dc0;stop-opacity:1;" offset="0.660156"/><stop style="stop-color:#1f7cc0;stop-opacity:1;" offset="0.664062"/><stop style="stop-color:#1f7cc0;stop-opacity:1;" offset="0.667969"/><stop style="stop-color:#1f7bc0;stop-opacity:1;" offset="0.671875"/><stop style="stop-color:#1e7bbf;stop-opacity:1;" offset="0.675781"/><stop style="stop-color:#1e7abf;stop-opacity:1;" offset="0.679688"/><stop style="stop-color:#1d79bf;stop-opacity:1;" offset="0.683594"/><stop style="stop-color:#1d79bf;stop-opacity:1;" offset="0.6875"/><stop style="stop-color:#1d78bf;stop-opacity:1;" offset="0.691406"/><stop style="stop-color:#1c78be;stop-opacity:1;" offset="0.695312"/><stop style="stop-color:#1c77be;stop-opacity:1;" offset="0.699219"/><stop style="stop-color:#1c76be;stop-opacity:1;" offset="0.703125"/><stop style="stop-color:#1b76be;stop-opacity:1;" offset="0.707031"/><stop style="stop-color:#1b75bd;stop-opacity:1;" offset="0.710938"/><stop style="stop-color:#1b75bd;stop-opacity:1;" offset="0.714844"/><stop style="stop-color:#1a74bd;stop-opacity:1;" offset="0.71875"/><stop style="stop-color:#1a74bd;stop-opacity:1;" offset="0.722656"/><stop style="stop-color:#1973bd;stop-opacity:1;" offset="0.726562"/><stop style="stop-color:#1972bc;stop-opacity:1;" offset="0.730469"/><stop style="stop-color:#1972bc;stop-opacity:1;" offset="0.734375"/><stop style="stop-color:#1871bc;stop-opacity:1;" offset="0.738281"/><stop style="stop-color:#1871bc;stop-opacity:1;" offset="0.742188"/><stop style="stop-color:#1870bb;stop-opacity:1;" offset="0.746094"/><stop style="stop-color:#176fbb;stop-opacity:1;" offset="0.75"/><stop style="stop-color:#176fbb;stop-opacity:1;" offset="0.753906"/><stop style="stop-color:#176ebb;stop-opacity:1;" offset="0.757812"/><stop style="stop-color:#166eba;stop-opacity:1;" offset="0.761719"/><stop style="stop-color:#166dba;stop-opacity:1;" offset="0.765625"/><stop style="stop-color:#156dba;stop-opacity:1;" offset="0.769531"/><stop style="stop-color:#156cba;stop-opacity:1;" offset="0.773438"/><stop style="stop-color:#156bba;stop-opacity:1;" offset="0.777344"/><stop style="stop-color:#146bb9;stop-opacity:1;" offset="0.78125"/><stop style="stop-color:#146ab9;stop-opacity:1;" offset="0.785156"/><stop style="stop-color:#146ab9;stop-opacity:1;" offset="0.789062"/><stop style="stop-color:#1369b9;stop-opacity:1;" offset="0.792969"/><stop style="stop-color:#1368b8;stop-opacity:1;" offset="0.796875"/><stop style="stop-color:#1368b8;stop-opacity:1;" offset="0.800781"/><stop style="stop-color:#1267b8;stop-opacity:1;" offset="0.804687"/><stop style="stop-color:#1267b8;stop-opacity:1;" offset="0.808594"/><stop style="stop-color:#1166b8;stop-opacity:1;" offset="0.8125"/><stop style="stop-color:#1165b7;stop-opacity:1;" offset="0.816406"/><stop style="stop-color:#1165b7;stop-opacity:1;" offset="0.820312"/><stop style="stop-color:#1064b7;stop-opacity:1;" offset="0.824219"/><stop style="stop-color:#1064b7;stop-opacity:1;" offset="0.828125"/><stop style="stop-color:#1063b6;stop-opacity:1;" offset="0.832031"/><stop style="stop-color:#0f63b6;stop-opacity:1;" offset="0.835938"/><stop style="stop-color:#0f62b6;stop-opacity:1;" offset="0.839844"/><stop style="stop-color:#0f61b6;stop-opacity:1;" offset="0.84375"/><stop style="stop-color:#0e61b6;stop-opacity:1;" offset="0.847656"/><stop style="stop-color:#0e60b5;stop-opacity:1;" offset="0.851562"/><stop style="stop-color:#0d60b5;stop-opacity:1;" offset="0.855469"/><stop style="stop-color:#0d5fb5;stop-opacity:1;" offset="0.859375"/><stop style="stop-color:#0d5eb5;stop-opacity:1;" offset="0.863281"/><stop style="stop-color:#0c5eb4;stop-opacity:1;" offset="0.867187"/><stop style="stop-color:#0c5db4;stop-opacity:1;" offset="0.871094"/><stop style="stop-color:#0c5db4;stop-opacity:1;" offset="0.875"/><stop style="stop-color:#0b5cb4;stop-opacity:1;" offset="0.878906"/><stop style="stop-color:#0b5cb4;stop-opacity:1;" offset="0.882812"/><stop style="stop-color:#0b5bb3;stop-opacity:1;" offset="0.886719"/><stop style="stop-color:#0a5ab3;stop-opacity:1;" offset="0.890625"/><stop style="stop-color:#0a5ab3;stop-opacity:1;" offset="0.894531"/><stop style="stop-color:#0959b3;stop-opacity:1;" offset="0.898438"/><stop style="stop-color:#0959b2;stop-opacity:1;" offset="0.902344"/><stop style="stop-color:#0958b2;stop-opacity:1;" offset="0.90625"/><stop style="stop-color:#0857b2;stop-opacity:1;" offset="0.910156"/><stop style="stop-color:#0857b2;stop-opacity:1;" offset="0.914062"/><stop style="stop-color:#0856b2;stop-opacity:1;" offset="0.917969"/><stop style="stop-color:#0756b1;stop-opacity:1;" offset="0.921875"/><stop style="stop-color:#0755b1;stop-opacity:1;" offset="0.925781"/><stop style="stop-color:#0754b1;stop-opacity:1;" offset="0.929687"/><stop style="stop-color:#0654b1;stop-opacity:1;" offset="0.933594"/><stop style="stop-color:#0653b0;stop-opacity:1;" offset="0.9375"/><stop style="stop-color:#0553b0;stop-opacity:1;" offset="0.941406"/><stop style="stop-color:#0552b0;stop-opacity:1;" offset="0.945312"/><stop style="stop-color:#0552b0;stop-opacity:1;" offset="0.949219"/><stop style="stop-color:#0451b0;stop-opacity:1;" offset="0.953125"/><stop style="stop-color:#0450af;stop-opacity:1;" offset="0.957031"/><stop style="stop-color:#0450af;stop-opacity:1;" offset="0.960938"/><stop style="stop-color:#034faf;stop-opacity:1;" offset="0.964844"/><stop style="stop-color:#034faf;stop-opacity:1;" offset="0.96875"/><stop style="stop-color:#034eae;stop-opacity:1;" offset="0.972656"/><stop style="stop-color:#024dae;stop-opacity:1;" offset="0.976562"/><stop style="stop-color:#024dae;stop-opacity:1;" offset="0.980469"/><stop style="stop-color:#014cae;stop-opacity:1;" offset="0.984375"/><stop style="stop-color:#014cae;stop-opacity:1;" offset="0.988281"/><stop style="stop-color:#014bad;stop-opacity:1;" offset="0.992188"/><stop style="stop-color:#004bad;stop-opacity:1;" offset="0.996094"/><stop style="stop-color:#004aad;stop-opacity:1;" offset="1"/></linearGradient><clipPath id="6fb956c58d"><path d="M 351 6.117188 L 378 6.117188 L 378 45 L 351 45 Z M 351 6.117188 "/></clipPath><clipPath id="f0a4e885e1"><path d="M 342.398438 37 L 387.082031 37 L 387.082031 57.503906 L 342.398438 57.503906 Z M 342.398438 37 "/></clipPath></defs><g id="17a78ab64d"><g clip-rule="nonzero" clip-path="url(#2b4c1c706f)"><g clip-rule="nonzero" clip-path="url(#574bdfa6c9)"><path style="fill:none;stroke-width:12;stroke-linecap:butt;stroke-linejoin:miter;stroke:url(#0d08f7ae03);stroke-miterlimit:4;" d="M 23.995962 0.000000000000106635 L 507.232723 0.000000000000106635 C 513.598421 0.000000000000106635 519.701724 2.529486 524.204418 7.026933 C 528.701865 11.529628 531.231351 17.632931 531.231351 23.998628 L 531.231351 69.676315 C 531.231351 76.036765 528.701865 82.140068 524.204418 86.642763 C 519.701724 91.145458 513.598421 93.669696 507.232723 93.669696 L 23.995962 93.669696 C 17.635512 93.669696 11.526961 91.145458 7.029514 86.642763 C 2.526819 82.140068 0.00258124 76.036765 0.00258124 69.676315 L 0.00258124 23.998628 C 0.00258124 17.632931 2.526819 11.529628 7.029514 7.026933 C 11.526961 2.529486 17.635512 0.000000000000106635 23.995962 0.000000000000106635 Z M 23.995962 0.000000000000106635 " transform="matrix(0.744346,0,0,0.744346,1.357454,-0.000000000000079373)"/></g></g><g style="fill:#000000;fill-opacity:1;"><g transform="translate(8.792118, 43.938377)"><path style="stroke:none" d="M 2.375 -29.78125 L 11.796875 -29.78125 C 13.796875 -29.78125 15.648438 -29.410156 17.359375 -28.671875 C 19.066406 -27.941406 20.554688 -26.910156 21.828125 -25.578125 C 23.097656 -24.253906 24.085938 -22.679688 24.796875 -20.859375 C 25.515625 -19.046875 25.875 -17.054688 25.875 -14.890625 C 25.875 -12.722656 25.515625 -10.726562 24.796875 -8.90625 C 24.085938 -7.09375 23.097656 -5.519531 21.828125 -4.1875 C 20.554688 -2.863281 19.066406 -1.832031 17.359375 -1.09375 C 15.648438 -0.363281 13.796875 0 11.796875 0 L 2.375 0 Z M 4.765625 -27.75 C 4.765625 -27.457031 4.765625 -26.847656 4.765625 -25.921875 C 4.765625 -25.003906 4.765625 -23.867188 4.765625 -22.515625 C 4.765625 -21.160156 4.765625 -19.691406 4.765625 -18.109375 C 4.765625 -16.535156 4.757812 -14.945312 4.75 -13.34375 C 4.738281 -11.738281 4.734375 -10.207031 4.734375 -8.75 C 4.734375 -7.300781 4.734375 -6.023438 4.734375 -4.921875 C 4.734375 -3.828125 4.734375 -3.007812 4.734375 -2.46875 C 4.734375 -1.675781 4.863281 -1.140625 5.125 -0.859375 C 5.382812 -0.585938 5.78125 -0.453125 6.3125 -0.453125 C 6.632812 -0.453125 7.019531 -0.453125 7.46875 -0.453125 C 7.925781 -0.453125 8.382812 -0.445312 8.84375 -0.4375 C 9.300781 -0.425781 9.660156 -0.421875 9.921875 -0.421875 C 11.804688 -0.421875 13.476562 -0.695312 14.9375 -1.25 C 16.394531 -1.800781 17.648438 -2.554688 18.703125 -3.515625 C 19.753906 -4.484375 20.625 -5.582031 21.3125 -6.8125 C 22 -8.050781 22.503906 -9.359375 22.828125 -10.734375 C 23.148438 -12.117188 23.3125 -13.503906 23.3125 -14.890625 C 23.3125 -16.617188 23.050781 -18.332031 22.53125 -20.03125 C 22.019531 -21.726562 21.222656 -23.265625 20.140625 -24.640625 C 19.066406 -26.023438 17.6875 -27.132812 16 -27.96875 C 14.3125 -28.800781 12.285156 -29.21875 9.921875 -29.21875 C 9.660156 -29.21875 9.300781 -29.21875 8.84375 -29.21875 C 8.382812 -29.21875 7.925781 -29.210938 7.46875 -29.203125 C 7.019531 -29.191406 6.632812 -29.1875 6.3125 -29.1875 C 5.851562 -29.1875 5.492188 -29.09375 5.234375 -28.90625 C 4.984375 -28.71875 4.828125 -28.332031 4.765625 -27.75 Z M 4.765625 -27.75 "/></g></g><g style="fill:#000000;fill-opacity:1;"><g transform="translate(36.157332, 43.938377)"><path style="stroke:none" d="M 11.578125 0.59375 C 9.578125 0.59375 7.816406 0.144531 6.296875 -0.75 C 4.773438 -1.65625 3.59375 -2.925781 2.75 -4.5625 C 1.90625 -6.207031 1.484375 -8.117188 1.484375 -10.296875 C 1.484375 -12.484375 1.90625 -14.394531 2.75 -16.03125 C 3.59375 -17.675781 4.773438 -18.945312 6.296875 -19.84375 C 7.816406 -20.75 9.578125 -21.203125 11.578125 -21.203125 C 13.609375 -21.203125 15.378906 -20.75 16.890625 -19.84375 C 18.398438 -18.945312 19.578125 -17.675781 20.421875 -16.03125 C 21.265625 -14.394531 21.6875 -12.484375 21.6875 -10.296875 C 21.6875 -8.117188 21.265625 -6.207031 20.421875 -4.5625 C 19.578125 -2.925781 18.398438 -1.65625 16.890625 -0.75 C 15.378906 0.144531 13.609375 0.59375 11.578125 0.59375 Z M 3.9375 -10.296875 C 3.9375 -8.234375 4.253906 -6.425781 4.890625 -4.875 C 5.523438 -3.332031 6.414062 -2.132812 7.5625 -1.28125 C 8.71875 -0.425781 10.054688 0 11.578125 0 C 13.109375 0 14.445312 -0.425781 15.59375 -1.28125 C 16.75 -2.132812 17.644531 -3.332031 18.28125 -4.875 C 18.914062 -6.425781 19.234375 -8.234375 19.234375 -10.296875 C 19.234375 -12.367188 18.914062 -14.175781 18.28125 -15.71875 C 17.644531 -17.269531 16.75 -18.472656 15.59375 -19.328125 C 14.445312 -20.179688 13.109375 -20.609375 11.578125 -20.609375 C 10.054688 -20.609375 8.71875 -20.179688 7.5625 -19.328125 C 6.414062 -18.472656 5.523438 -17.269531 4.890625 -15.71875 C 4.253906 -14.175781 3.9375 -12.367188 3.9375 -10.296875 Z M 3.9375 -10.296875 "/></g></g><g style="fill:#000000;fill-opacity:1;"><g transform="translate(58.430517, 43.938377)"><path style="stroke:none" d="M 7.859375 0 L -0.359375 -20.609375 L 2.328125 -20.609375 L 9.703125 -2.109375 C 9.867188 -1.691406 10.039062 -1.484375 10.21875 -1.484375 C 10.414062 -1.484375 10.570312 -1.703125 10.6875 -2.140625 L 12.5625 -8.546875 C 12.6875 -8.984375 12.738281 -9.453125 12.71875 -9.953125 C 12.695312 -10.460938 12.609375 -10.925781 12.453125 -11.34375 L 8.75 -20.609375 L 11.4375 -20.609375 L 13.578125 -15.21875 C 13.710938 -14.820312 13.875 -14.625 14.0625 -14.625 C 14.257812 -14.625 14.414062 -14.84375 14.53125 -15.28125 L 16.109375 -20.609375 L 18.765625 -20.609375 L 15.671875 -12.8125 C 15.304688 -11.894531 15.304688 -10.976562 15.671875 -10.0625 L 18.828125 -2.109375 C 18.984375 -1.691406 19.148438 -1.484375 19.328125 -1.484375 C 19.523438 -1.484375 19.679688 -1.703125 19.796875 -2.140625 L 25.21875 -20.609375 L 27.875 -20.609375 L 19.65625 0 L 16.96875 0 L 14.296875 -6.703125 C 14.117188 -7.117188 13.941406 -7.328125 13.765625 -7.328125 C 13.578125 -7.328125 13.394531 -7.117188 13.21875 -6.703125 L 10.546875 0 Z M 7.859375 0 "/></g></g><g style="fill:#000000;fill-opacity:1;"><g transform="translate(86.331714, 43.938377)"><path style="stroke:none" d="M 2.078125 0 L 2.078125 -20.609375 L 4.46875 -20.609375 L 4.46875 -18.40625 C 4.46875 -17.90625 4.554688 -17.65625 4.734375 -17.65625 C 4.847656 -17.65625 5.066406 -17.796875 5.390625 -18.078125 C 6.460938 -19.109375 7.601562 -19.882812 8.8125 -20.40625 C 10.019531 -20.9375 11.398438 -21.203125 12.953125 -21.203125 C 14.460938 -21.203125 15.785156 -20.910156 16.921875 -20.328125 C 18.066406 -19.742188 18.960938 -18.929688 19.609375 -17.890625 C 20.253906 -16.859375 20.578125 -15.671875 20.578125 -14.328125 L 20.578125 0 L 18.203125 0 L 18.203125 -14.265625 C 18.203125 -15.671875 17.929688 -16.835938 17.390625 -17.765625 C 16.859375 -18.703125 16.15625 -19.410156 15.28125 -19.890625 C 14.40625 -20.367188 13.472656 -20.609375 12.484375 -20.609375 C 11.484375 -20.609375 10.503906 -20.421875 9.546875 -20.046875 C 8.597656 -19.671875 7.742188 -19.160156 6.984375 -18.515625 C 6.222656 -17.867188 5.613281 -17.132812 5.15625 -16.3125 C 4.695312 -15.5 4.46875 -14.65625 4.46875 -13.78125 L 4.46875 0 Z M 2.078125 0 "/></g></g><g style="fill:#000000;fill-opacity:1;"><g transform="translate(108.992133, 43.938377)"><path style="stroke:none" d="M 4.46875 0 L 2.078125 0 L 2.078125 -29.78125 L 4.46875 -29.78125 Z M 4.46875 0 "/></g></g><g style="fill:#000000;fill-opacity:1;"><g transform="translate(115.54311, 43.938377)"><path style="stroke:none" d="M 11.578125 0.59375 C 9.578125 0.59375 7.816406 0.144531 6.296875 -0.75 C 4.773438 -1.65625 3.59375 -2.925781 2.75 -4.5625 C 1.90625 -6.207031 1.484375 -8.117188 1.484375 -10.296875 C 1.484375 -12.484375 1.90625 -14.394531 2.75 -16.03125 C 3.59375 -17.675781 4.773438 -18.945312 6.296875 -19.84375 C 7.816406 -20.75 9.578125 -21.203125 11.578125 -21.203125 C 13.609375 -21.203125 15.378906 -20.75 16.890625 -19.84375 C 18.398438 -18.945312 19.578125 -17.675781 20.421875 -16.03125 C 21.265625 -14.394531 21.6875 -12.484375 21.6875 -10.296875 C 21.6875 -8.117188 21.265625 -6.207031 20.421875 -4.5625 C 19.578125 -2.925781 18.398438 -1.65625 16.890625 -0.75 C 15.378906 0.144531 13.609375 0.59375 11.578125 0.59375 Z M 3.9375 -10.296875 C 3.9375 -8.234375 4.253906 -6.425781 4.890625 -4.875 C 5.523438 -3.332031 6.414062 -2.132812 7.5625 -1.28125 C 8.71875 -0.425781 10.054688 0 11.578125 0 C 13.109375 0 14.445312 -0.425781 15.59375 -1.28125 C 16.75 -2.132812 17.644531 -3.332031 18.28125 -4.875 C 18.914062 -6.425781 19.234375 -8.234375 19.234375 -10.296875 C 19.234375 -12.367188 18.914062 -14.175781 18.28125 -15.71875 C 17.644531 -17.269531 16.75 -18.472656 15.59375 -19.328125 C 14.445312 -20.179688 13.109375 -20.609375 11.578125 -20.609375 C 10.054688 -20.609375 8.71875 -20.179688 7.5625 -19.328125 C 6.414062 -18.472656 5.523438 -17.269531 4.890625 -15.71875 C 4.253906 -14.175781 3.9375 -12.367188 3.9375 -10.296875 Z M 3.9375 -10.296875 "/></g></g><g style="fill:#000000;fill-opacity:1;"><g transform="translate(138.709739, 43.938377)"><path style="stroke:none" d="M 1.578125 -4.765625 C 1.578125 -6.148438 1.863281 -7.304688 2.4375 -8.234375 C 3.019531 -9.160156 3.78125 -9.914062 4.71875 -10.5 C 5.664062 -11.082031 6.695312 -11.546875 7.8125 -11.890625 C 8.9375 -12.242188 10.054688 -12.53125 11.171875 -12.75 C 12.296875 -12.96875 13.328125 -13.1875 14.265625 -13.40625 C 15.210938 -13.625 15.972656 -13.890625 16.546875 -14.203125 C 17.128906 -14.523438 17.421875 -14.953125 17.421875 -15.484375 C 17.421875 -16.660156 17.1875 -17.585938 16.71875 -18.265625 C 16.25 -18.953125 15.675781 -19.457031 15 -19.78125 C 14.332031 -20.113281 13.65625 -20.332031 12.96875 -20.4375 C 12.28125 -20.550781 11.726562 -20.609375 11.3125 -20.609375 C 10.164062 -20.609375 9.257812 -20.429688 8.59375 -20.078125 C 7.925781 -19.734375 7.40625 -19.304688 7.03125 -18.796875 C 6.65625 -18.296875 6.347656 -17.789062 6.109375 -17.28125 C 5.867188 -16.78125 5.609375 -16.351562 5.328125 -16 C 5.046875 -15.65625 4.671875 -15.484375 4.203125 -15.484375 C 3.898438 -15.484375 3.660156 -15.601562 3.484375 -15.84375 C 3.304688 -16.082031 3.21875 -16.367188 3.21875 -16.703125 C 3.21875 -17.316406 3.445312 -17.894531 3.90625 -18.4375 C 4.363281 -18.988281 4.957031 -19.46875 5.6875 -19.875 C 6.425781 -20.28125 7.238281 -20.601562 8.125 -20.84375 C 9.019531 -21.082031 9.894531 -21.203125 10.75 -21.203125 C 12.695312 -21.203125 14.34375 -20.867188 15.6875 -20.203125 C 17.039062 -19.535156 18.0625 -18.648438 18.75 -17.546875 C 19.445312 -16.453125 19.796875 -15.257812 19.796875 -13.96875 L 19.796875 0 L 17.421875 0 L 17.421875 -2.6875 C 17.421875 -3.21875 17.28125 -3.484375 17 -3.484375 C 16.78125 -3.484375 16.550781 -3.375 16.3125 -3.15625 C 15.582031 -2.539062 14.785156 -1.941406 13.921875 -1.359375 C 13.054688 -0.785156 12.140625 -0.316406 11.171875 0.046875 C 10.210938 0.410156 9.207031 0.59375 8.15625 0.59375 C 6.84375 0.59375 5.691406 0.363281 4.703125 -0.09375 C 3.710938 -0.550781 2.941406 -1.1875 2.390625 -2 C 1.847656 -2.8125 1.578125 -3.734375 1.578125 -4.765625 Z M 10.875 -12.1875 C 9.625 -11.96875 8.492188 -11.535156 7.484375 -10.890625 C 6.484375 -10.242188 5.695312 -9.441406 5.125 -8.484375 C 4.550781 -7.535156 4.265625 -6.472656 4.265625 -5.296875 C 4.265625 -4.203125 4.5 -3.304688 4.96875 -2.609375 C 5.445312 -1.921875 6.066406 -1.40625 6.828125 -1.0625 C 7.597656 -0.726562 8.398438 -0.5625 9.234375 -0.5625 C 10.222656 -0.5625 11.164062 -0.726562 12.0625 -1.0625 C 12.957031 -1.40625 13.785156 -1.851562 14.546875 -2.40625 C 15.304688 -2.96875 15.96875 -3.566406 16.53125 -4.203125 C 16.8125 -4.492188 17.03125 -4.890625 17.1875 -5.390625 C 17.34375 -5.890625 17.421875 -6.382812 17.421875 -6.875 L 17.421875 -12.203125 C 17.421875 -12.640625 17.296875 -12.945312 17.046875 -13.125 C 16.796875 -13.3125 16.453125 -13.34375 16.015625 -13.21875 C 15.242188 -13 14.441406 -12.816406 13.609375 -12.671875 C 12.773438 -12.523438 11.863281 -12.363281 10.875 -12.1875 Z M 10.875 -12.1875 "/></g></g><g style="fill:#000000;fill-opacity:1;"><g transform="translate(160.595951, 43.938377)"><path style="stroke:none" d="M 1.484375 -10.9375 C 1.484375 -12.875 1.820312 -14.617188 2.5 -16.171875 C 3.175781 -17.722656 4.164062 -18.945312 5.46875 -19.84375 C 6.769531 -20.75 8.351562 -21.203125 10.21875 -21.203125 C 11.84375 -21.203125 13.140625 -20.984375 14.109375 -20.546875 C 15.085938 -20.109375 15.804688 -19.660156 16.265625 -19.203125 C 16.734375 -18.734375 17.109375 -18.5 17.390625 -18.5 C 17.742188 -18.5 17.921875 -18.929688 17.921875 -19.796875 L 17.921875 -30.375 L 20.125 -30.375 L 20.125 0 L 10.625 0 C 9.082031 0 7.734375 -0.320312 6.578125 -0.96875 C 5.429688 -1.613281 4.476562 -2.472656 3.71875 -3.546875 C 2.96875 -4.617188 2.40625 -5.800781 2.03125 -7.09375 C 1.664062 -8.382812 1.484375 -9.664062 1.484375 -10.9375 Z M 3.90625 -10.90625 C 3.90625 -9.59375 4.070312 -8.320312 4.40625 -7.09375 C 4.738281 -5.875 5.265625 -4.773438 5.984375 -3.796875 C 6.703125 -2.816406 7.617188 -2.035156 8.734375 -1.453125 C 9.859375 -0.878906 11.207031 -0.59375 12.78125 -0.59375 L 16.203125 -0.59375 C 16.660156 -0.59375 17.019531 -0.726562 17.28125 -1 C 17.550781 -1.28125 17.6875 -1.640625 17.6875 -2.078125 L 17.6875 -15.09375 C 17.6875 -15.75 17.609375 -16.265625 17.453125 -16.640625 C 17.148438 -17.335938 16.675781 -17.972656 16.03125 -18.546875 C 15.382812 -19.128906 14.625 -19.59375 13.75 -19.9375 C 12.882812 -20.28125 11.953125 -20.453125 10.953125 -20.453125 C 9.921875 -20.453125 8.972656 -20.191406 8.109375 -19.671875 C 7.242188 -19.160156 6.5 -18.453125 5.875 -17.546875 C 5.25 -16.648438 4.765625 -15.628906 4.421875 -14.484375 C 4.078125 -13.347656 3.90625 -12.15625 3.90625 -10.90625 Z M 3.90625 -10.90625 "/></g></g><g style="fill:#000000;fill-opacity:1;"><g transform="translate(182.809716, 43.938377)"><path style="stroke:none" d=""/></g></g><g style="fill:#000000;fill-opacity:1;"><g transform="translate(191.742869, 43.938377)"><path style="stroke:none" d="M 2.375 0 L 2.375 -29.78125 L 16.078125 -29.78125 C 17.585938 -29.78125 18.882812 -29.585938 19.96875 -29.203125 C 21.050781 -28.816406 21.9375 -28.304688 22.625 -27.671875 C 23.320312 -27.035156 23.875 -26.332031 24.28125 -25.5625 C 24.6875 -24.800781 24.96875 -24.046875 25.125 -23.296875 C 25.289062 -22.554688 25.375 -21.890625 25.375 -21.296875 C 25.375 -20.703125 25.289062 -20.03125 25.125 -19.28125 C 24.96875 -18.539062 24.6875 -17.796875 24.28125 -17.046875 C 23.875 -16.304688 23.320312 -15.617188 22.625 -14.984375 C 21.9375 -14.347656 21.054688 -13.828125 19.984375 -13.421875 C 18.910156 -13.023438 17.609375 -12.820312 16.078125 -12.8125 L 15.21875 -12.8125 C 14.78125 -12.8125 14.582031 -12.738281 14.625 -12.59375 C 14.664062 -12.457031 14.863281 -12.25 15.21875 -11.96875 C 16.050781 -11.3125 16.898438 -10.4375 17.765625 -9.34375 C 18.628906 -8.257812 19.609375 -6.984375 20.703125 -5.515625 C 21.316406 -4.691406 21.960938 -3.910156 22.640625 -3.171875 C 23.328125 -2.441406 23.984375 -1.804688 24.609375 -1.265625 C 25.234375 -0.722656 25.765625 -0.300781 26.203125 0 L 22.84375 0 C 22.144531 -0.414062 21.425781 -1.015625 20.6875 -1.796875 C 19.957031 -2.585938 19.222656 -3.46875 18.484375 -4.4375 C 17.753906 -5.40625 17.023438 -6.375 16.296875 -7.34375 C 15.578125 -8.320312 14.867188 -9.222656 14.171875 -10.046875 C 13.484375 -10.867188 12.8125 -11.535156 12.15625 -12.046875 C 11.5 -12.554688 10.875 -12.8125 10.28125 -12.8125 L 7.625 -12.8125 L 7.625 -13.40625 L 13.46875 -13.40625 C 16.4375 -13.40625 18.691406 -14.113281 20.234375 -15.53125 C 21.773438 -16.945312 22.546875 -18.867188 22.546875 -21.296875 C 22.546875 -23.710938 21.773438 -25.628906 20.234375 -27.046875 C 18.691406 -28.472656 16.4375 -29.1875 13.46875 -29.1875 L 6.3125 -29.1875 C 5.78125 -29.1875 5.382812 -29.078125 5.125 -28.859375 C 4.863281 -28.640625 4.734375 -28.125 4.734375 -27.3125 C 4.734375 -27.1875 4.734375 -26.710938 4.734375 -25.890625 C 4.734375 -25.066406 4.734375 -23.992188 4.734375 -22.671875 C 4.734375 -21.359375 4.734375 -19.894531 4.734375 -18.28125 C 4.734375 -16.675781 4.738281 -15.023438 4.75 -13.328125 C 4.757812 -11.628906 4.765625 -9.984375 4.765625 -8.390625 C 4.765625 -6.804688 4.765625 -5.382812 4.765625 -4.125 C 4.765625 -2.863281 4.765625 -1.859375 4.765625 -1.109375 C 4.765625 -0.367188 4.765625 0 4.765625 0 Z M 2.375 0 "/></g></g><g style="fill:#000000;fill-opacity:1;"><g transform="translate(217.351071, 43.938377)"><path style="stroke:none" d="M 11.734375 0.59375 C 9.742188 0.59375 7.976562 0.148438 6.4375 -0.734375 C 4.90625 -1.628906 3.695312 -2.894531 2.8125 -4.53125 C 1.925781 -6.175781 1.484375 -8.117188 1.484375 -10.359375 C 1.484375 -11.847656 1.769531 -13.242188 2.34375 -14.546875 C 2.925781 -15.847656 3.71875 -17 4.71875 -18 C 5.71875 -19 6.878906 -19.78125 8.203125 -20.34375 C 9.523438 -20.914062 10.941406 -21.203125 12.453125 -21.203125 C 13.484375 -21.203125 14.492188 -21.046875 15.484375 -20.734375 C 16.472656 -20.429688 17.296875 -19.957031 17.953125 -19.3125 C 18.609375 -18.664062 18.9375 -17.835938 18.9375 -16.828125 C 18.9375 -15.734375 18.597656 -14.722656 17.921875 -13.796875 C 17.253906 -12.878906 16.335938 -12.078125 15.171875 -11.390625 C 14.015625 -10.703125 12.703125 -10.171875 11.234375 -9.796875 C 9.773438 -9.421875 8.253906 -9.234375 6.671875 -9.234375 C 6.472656 -9.234375 6.285156 -9.234375 6.109375 -9.234375 C 5.941406 -9.234375 5.78125 -9.234375 5.625 -9.234375 C 5.164062 -9.253906 4.816406 -9.132812 4.578125 -8.875 C 4.347656 -8.613281 4.269531 -8.273438 4.34375 -7.859375 C 4.820312 -5.492188 5.753906 -3.640625 7.140625 -2.296875 C 8.535156 -0.960938 10.296875 -0.296875 12.421875 -0.296875 C 14.066406 -0.296875 15.425781 -0.707031 16.5 -1.53125 C 17.570312 -2.351562 18.359375 -3.320312 18.859375 -4.4375 L 19.484375 -4.078125 C 18.804688 -2.648438 17.84375 -1.515625 16.59375 -0.671875 C 15.351562 0.171875 13.734375 0.59375 11.734375 0.59375 Z M 4.046875 -11.25 C 4.023438 -10.914062 4.117188 -10.601562 4.328125 -10.3125 C 4.535156 -10.03125 4.800781 -9.867188 5.125 -9.828125 C 5.34375 -9.804688 5.570312 -9.78125 5.8125 -9.75 C 6.0625 -9.71875 6.335938 -9.703125 6.640625 -9.703125 C 7.410156 -9.703125 8.25 -9.804688 9.15625 -10.015625 C 10.0625 -10.222656 10.945312 -10.523438 11.8125 -10.921875 C 12.675781 -11.328125 13.460938 -11.8125 14.171875 -12.375 C 14.890625 -12.9375 15.460938 -13.570312 15.890625 -14.28125 C 16.316406 -15 16.53125 -15.78125 16.53125 -16.625 C 16.53125 -17.476562 16.332031 -18.203125 15.9375 -18.796875 C 15.539062 -19.390625 15.023438 -19.835938 14.390625 -20.140625 C 13.753906 -20.453125 13.066406 -20.609375 12.328125 -20.609375 C 11.035156 -20.609375 9.882812 -20.34375 8.875 -19.8125 C 7.863281 -19.289062 7.003906 -18.585938 6.296875 -17.703125 C 5.585938 -16.816406 5.046875 -15.816406 4.671875 -14.703125 C 4.296875 -13.597656 4.085938 -12.445312 4.046875 -11.25 Z M 4.046875 -11.25 "/></g></g><g style="fill:#000000;fill-opacity:1;"><g transform="translate(237.867527, 43.938377)"><path style="stroke:none" d="M 1.609375 -3.71875 C 1.609375 -4.0625 1.722656 -4.34375 1.953125 -4.5625 C 2.179688 -4.789062 2.460938 -4.90625 2.796875 -4.90625 C 3.148438 -4.90625 3.46875 -4.742188 3.75 -4.421875 C 4.03125 -4.097656 4.320312 -3.691406 4.625 -3.203125 C 4.9375 -2.710938 5.3125 -2.21875 5.75 -1.71875 C 6.1875 -1.226562 6.738281 -0.816406 7.40625 -0.484375 C 8.082031 -0.160156 8.941406 0 9.984375 0 C 10.929688 0 11.820312 -0.148438 12.65625 -0.453125 C 13.488281 -0.765625 14.210938 -1.171875 14.828125 -1.671875 C 15.441406 -2.179688 15.921875 -2.726562 16.265625 -3.3125 C 16.617188 -3.90625 16.796875 -4.476562 16.796875 -5.03125 C 16.796875 -5.945312 16.585938 -6.691406 16.171875 -7.265625 C 15.753906 -7.835938 15.1875 -8.285156 14.46875 -8.609375 C 13.757812 -8.941406 12.960938 -9.210938 12.078125 -9.421875 C 11.191406 -9.628906 10.28125 -9.816406 9.34375 -9.984375 C 8.414062 -10.160156 7.507812 -10.367188 6.625 -10.609375 C 5.738281 -10.859375 4.9375 -11.1875 4.21875 -11.59375 C 3.507812 -12 2.945312 -12.546875 2.53125 -13.234375 C 2.113281 -13.921875 1.90625 -14.800781 1.90625 -15.875 C 1.90625 -16.863281 2.203125 -17.757812 2.796875 -18.5625 C 3.390625 -19.375 4.257812 -20.015625 5.40625 -20.484375 C 6.550781 -20.960938 7.957031 -21.203125 9.625 -21.203125 C 12.125 -21.203125 14.003906 -20.96875 15.265625 -20.5 C 16.523438 -20.03125 17.15625 -19.390625 17.15625 -18.578125 C 17.15625 -18.359375 17.039062 -18.144531 16.8125 -17.9375 C 16.582031 -17.726562 16.316406 -17.625 16.015625 -17.625 C 15.566406 -17.625 15.132812 -17.78125 14.71875 -18.09375 C 14.300781 -18.414062 13.851562 -18.789062 13.375 -19.21875 C 12.894531 -19.644531 12.359375 -20.015625 11.765625 -20.328125 C 11.171875 -20.648438 10.46875 -20.8125 9.65625 -20.8125 C 8.5625 -20.8125 7.609375 -20.59375 6.796875 -20.15625 C 5.992188 -19.71875 5.367188 -19.160156 4.921875 -18.484375 C 4.484375 -17.816406 4.265625 -17.113281 4.265625 -16.375 C 4.265625 -15.488281 4.519531 -14.789062 5.03125 -14.28125 C 5.550781 -13.769531 6.234375 -13.375 7.078125 -13.09375 C 7.921875 -12.820312 8.847656 -12.59375 9.859375 -12.40625 C 10.867188 -12.21875 11.878906 -12.003906 12.890625 -11.765625 C 13.910156 -11.523438 14.84375 -11.191406 15.6875 -10.765625 C 16.53125 -10.335938 17.207031 -9.742188 17.71875 -8.984375 C 18.238281 -8.234375 18.5 -7.242188 18.5 -6.015625 C 18.5 -4.609375 18.101562 -3.40625 17.3125 -2.40625 C 16.53125 -1.414062 15.472656 -0.664062 14.140625 -0.15625 C 12.816406 0.34375 11.320312 0.59375 9.65625 0.59375 C 8.601562 0.59375 7.59375 0.460938 6.625 0.203125 C 5.664062 -0.046875 4.804688 -0.382812 4.046875 -0.8125 C 3.296875 -1.238281 2.703125 -1.707031 2.265625 -2.21875 C 1.828125 -2.726562 1.609375 -3.226562 1.609375 -3.71875 Z M 1.609375 -3.71875 "/></g></g><g style="fill:#000000;fill-opacity:1;"><g transform="translate(257.758695, 43.938377)"><path style="stroke:none" d="M 1.34375 -18.859375 C 1.34375 -19.347656 1.535156 -19.71875 1.921875 -19.96875 C 2.304688 -20.21875 2.773438 -20.382812 3.328125 -20.46875 C 3.890625 -20.5625 4.410156 -20.609375 4.890625 -20.609375 L 8.21875 -20.609375 C 8.4375 -20.609375 8.582031 -20.550781 8.65625 -20.4375 C 8.738281 -20.332031 8.78125 -20.210938 8.78125 -20.078125 C 8.78125 -19.796875 8.609375 -19.441406 8.265625 -19.015625 C 7.929688 -18.585938 7.515625 -18.078125 7.015625 -17.484375 C 6.523438 -16.890625 6.03125 -16.191406 5.53125 -15.390625 C 5.039062 -14.597656 4.625 -13.695312 4.28125 -12.6875 C 3.945312 -11.675781 3.78125 -10.523438 3.78125 -9.234375 C 3.78125 -8.046875 3.953125 -6.914062 4.296875 -5.84375 C 4.648438 -4.769531 5.144531 -3.816406 5.78125 -2.984375 C 6.414062 -2.148438 7.171875 -1.492188 8.046875 -1.015625 C 8.929688 -0.535156 9.910156 -0.296875 10.984375 -0.296875 C 12.015625 -0.296875 12.957031 -0.515625 13.8125 -0.953125 C 14.664062 -1.390625 15.398438 -1.960938 16.015625 -2.671875 C 16.640625 -3.390625 17.117188 -4.171875 17.453125 -5.015625 C 17.785156 -5.859375 17.953125 -6.675781 17.953125 -7.46875 L 17.953125 -20.609375 L 20.34375 -20.609375 L 20.34375 0 L 17.953125 0 L 17.953125 -2.234375 C 17.953125 -2.765625 17.832031 -3.03125 17.59375 -3.03125 C 17.4375 -3.03125 17.222656 -2.894531 16.953125 -2.625 C 16.078125 -1.726562 15.078125 -0.96875 13.953125 -0.34375 C 12.828125 0.28125 11.410156 0.59375 9.703125 0.59375 C 8.410156 0.59375 7.257812 0.359375 6.25 -0.109375 C 5.238281 -0.585938 4.382812 -1.234375 3.6875 -2.046875 C 3 -2.867188 2.46875 -3.800781 2.09375 -4.84375 C 1.726562 -5.882812 1.546875 -6.96875 1.546875 -8.09375 C 1.546875 -9.382812 1.753906 -10.578125 2.171875 -11.671875 C 2.585938 -12.765625 3.109375 -13.75 3.734375 -14.625 C 4.359375 -15.5 4.976562 -16.269531 5.59375 -16.9375 C 6.207031 -17.613281 6.722656 -18.1875 7.140625 -18.65625 C 7.554688 -19.125 7.765625 -19.488281 7.765625 -19.75 C 7.765625 -19.90625 7.679688 -19.988281 7.515625 -20 C 7.347656 -20.007812 7.207031 -20.015625 7.09375 -20.015625 L 5.0625 -20.015625 C 4.445312 -20.015625 3.984375 -19.910156 3.671875 -19.703125 C 3.367188 -19.492188 3.148438 -19.253906 3.015625 -18.984375 C 2.890625 -18.710938 2.765625 -18.472656 2.640625 -18.265625 C 2.523438 -18.054688 2.332031 -17.953125 2.0625 -17.953125 C 1.914062 -17.953125 1.757812 -18.023438 1.59375 -18.171875 C 1.425781 -18.328125 1.34375 -18.554688 1.34375 -18.859375 Z M 1.34375 -18.859375 "/></g></g><g style="fill:#000000;fill-opacity:1;"><g transform="translate(280.299991, 43.938377)"><path style="stroke:none" d="M 2.078125 -20.609375 L 4.46875 -20.609375 L 4.46875 -17.953125 C 4.46875 -17.484375 4.535156 -17.25 4.671875 -17.25 C 4.796875 -17.25 4.976562 -17.414062 5.21875 -17.75 C 5.945312 -18.757812 6.882812 -19.585938 8.03125 -20.234375 C 9.1875 -20.878906 10.410156 -21.203125 11.703125 -21.203125 C 13.171875 -21.203125 14.421875 -20.867188 15.453125 -20.203125 C 16.484375 -19.535156 17.25 -18.664062 17.75 -17.59375 C 17.96875 -17.175781 18.15625 -16.96875 18.3125 -16.96875 C 18.46875 -16.96875 18.664062 -17.148438 18.90625 -17.515625 C 19.644531 -18.585938 20.601562 -19.46875 21.78125 -20.15625 C 22.96875 -20.851562 24.234375 -21.203125 25.578125 -21.203125 C 27.210938 -21.203125 28.515625 -20.921875 29.484375 -20.359375 C 30.453125 -19.804688 31.15625 -19.082031 31.59375 -18.1875 C 32.03125 -17.300781 32.25 -16.359375 32.25 -15.359375 L 32.25 0 L 29.875 0 L 29.875 -15.8125 C 29.875 -17.1875 29.535156 -18.328125 28.859375 -19.234375 C 28.179688 -20.148438 27.097656 -20.609375 25.609375 -20.609375 C 24.617188 -20.609375 23.6875 -20.421875 22.8125 -20.046875 C 21.9375 -19.671875 21.164062 -19.160156 20.5 -18.515625 C 19.832031 -17.867188 19.3125 -17.132812 18.9375 -16.3125 C 18.5625 -15.5 18.375 -14.65625 18.375 -13.78125 L 18.375 0 L 16 0 L 16 -15.8125 C 16 -17.1875 15.660156 -18.328125 14.984375 -19.234375 C 14.304688 -20.148438 13.222656 -20.609375 11.734375 -20.609375 C 10.816406 -20.609375 9.925781 -20.421875 9.0625 -20.046875 C 8.195312 -19.679688 7.414062 -19.175781 6.71875 -18.53125 C 6.03125 -17.894531 5.484375 -17.15625 5.078125 -16.3125 C 4.671875 -15.476562 4.46875 -14.597656 4.46875 -13.671875 L 4.46875 0 L 2.078125 0 Z M 2.078125 -20.609375 "/></g></g><g style="fill:#000000;fill-opacity:1;"><g transform="translate(314.662825, 43.938377)"><path style="stroke:none" d="M 11.734375 0.59375 C 9.742188 0.59375 7.976562 0.148438 6.4375 -0.734375 C 4.90625 -1.628906 3.695312 -2.894531 2.8125 -4.53125 C 1.925781 -6.175781 1.484375 -8.117188 1.484375 -10.359375 C 1.484375 -11.847656 1.769531 -13.242188 2.34375 -14.546875 C 2.925781 -15.847656 3.71875 -17 4.71875 -18 C 5.71875 -19 6.878906 -19.78125 8.203125 -20.34375 C 9.523438 -20.914062 10.941406 -21.203125 12.453125 -21.203125 C 13.484375 -21.203125 14.492188 -21.046875 15.484375 -20.734375 C 16.472656 -20.429688 17.296875 -19.957031 17.953125 -19.3125 C 18.609375 -18.664062 18.9375 -17.835938 18.9375 -16.828125 C 18.9375 -15.734375 18.597656 -14.722656 17.921875 -13.796875 C 17.253906 -12.878906 16.335938 -12.078125 15.171875 -11.390625 C 14.015625 -10.703125 12.703125 -10.171875 11.234375 -9.796875 C 9.773438 -9.421875 8.253906 -9.234375 6.671875 -9.234375 C 6.472656 -9.234375 6.285156 -9.234375 6.109375 -9.234375 C 5.941406 -9.234375 5.78125 -9.234375 5.625 -9.234375 C 5.164062 -9.253906 4.816406 -9.132812 4.578125 -8.875 C 4.347656 -8.613281 4.269531 -8.273438 4.34375 -7.859375 C 4.820312 -5.492188 5.753906 -3.640625 7.140625 -2.296875 C 8.535156 -0.960938 10.296875 -0.296875 12.421875 -0.296875 C 14.066406 -0.296875 15.425781 -0.707031 16.5 -1.53125 C 17.570312 -2.351562 18.359375 -3.320312 18.859375 -4.4375 L 19.484375 -4.078125 C 18.804688 -2.648438 17.84375 -1.515625 16.59375 -0.671875 C 15.351562 0.171875 13.734375 0.59375 11.734375 0.59375 Z M 4.046875 -11.25 C 4.023438 -10.914062 4.117188 -10.601562 4.328125 -10.3125 C 4.535156 -10.03125 4.800781 -9.867188 5.125 -9.828125 C 5.34375 -9.804688 5.570312 -9.78125 5.8125 -9.75 C 6.0625 -9.71875 6.335938 -9.703125 6.640625 -9.703125 C 7.410156 -9.703125 8.25 -9.804688 9.15625 -10.015625 C 10.0625 -10.222656 10.945312 -10.523438 11.8125 -10.921875 C 12.675781 -11.328125 13.460938 -11.8125 14.171875 -12.375 C 14.890625 -12.9375 15.460938 -13.570312 15.890625 -14.28125 C 16.316406 -15 16.53125 -15.78125 16.53125 -16.625 C 16.53125 -17.476562 16.332031 -18.203125 15.9375 -18.796875 C 15.539062 -19.390625 15.023438 -19.835938 14.390625 -20.140625 C 13.753906 -20.453125 13.066406 -20.609375 12.328125 -20.609375 C 11.035156 -20.609375 9.882812 -20.34375 8.875 -19.8125 C 7.863281 -19.289062 7.003906 -18.585938 6.296875 -17.703125 C 5.585938 -16.816406 5.046875 -15.816406 4.671875 -14.703125 C 4.296875 -13.597656 4.085938 -12.445312 4.046875 -11.25 Z M 4.046875 -11.25 "/></g></g><g clip-rule="nonzero" clip-path="url(#6fb956c58d)"><path style=" stroke:none;fill-rule:nonzero;fill:#000000;fill-opacity:1;" d="M 364.742188 6.492188 C 363 6.492188 361.582031 7.914062 361.582031 9.65625 L 361.582031 33.207031 L 357.367188 28.988281 C 355.90625 27.566406 354.027344 27.925781 352.933594 29.019531 C 351.839844 30.117188 351.476562 31.992188 352.910156 33.472656 L 362.496094 43.074219 C 363.066406 43.667969 363.847656 43.996094 364.699219 44.003906 C 364.707031 44.003906 364.714844 44.003906 364.726562 44.003906 C 365.574219 44.003906 366.394531 43.667969 366.976562 43.085938 L 376.582031 33.464844 C 378 31.992188 377.636719 30.113281 376.546875 29.019531 C 375.457031 27.925781 373.582031 27.566406 372.105469 28.996094 L 367.902344 33.207031 L 367.902344 9.65625 C 367.902344 7.914062 366.484375 6.492188 364.742188 6.492188 Z M 364.742188 6.492188 "/></g><g clip-rule="nonzero" clip-path="url(#f0a4e885e1)"><path style=" stroke:none;fill-rule:nonzero;fill:#000000;fill-opacity:1;" d="M 345.546875 37.683594 C 343.804688 37.683594 342.386719 39.101562 342.386719 40.847656 L 342.386719 44.347656 C 342.386719 51.394531 348.109375 57.125 355.144531 57.125 L 374.339844 57.125 C 381.375 57.125 387.097656 51.394531 387.097656 44.347656 L 387.097656 40.847656 C 387.097656 39.101562 385.679688 37.683594 383.9375 37.683594 C 382.195312 37.683594 380.777344 39.101562 380.777344 40.847656 L 380.777344 44.347656 C 380.777344 47.90625 377.886719 50.796875 374.339844 50.796875 L 355.144531 50.796875 C 351.59375 50.796875 348.707031 47.90625 348.707031 44.347656 L 348.707031 40.847656 C 348.707031 39.101562 347.289062 37.683594 345.546875 37.683594 Z M 345.546875 37.683594 "/></g></g></svg>